<?xml version="1.0" encoding="utf-8"?>
<!-- Svg Vector Icons : http://www.onlinewebfonts.com/icon -->
<!DOCTYPE svg PUBLIC "-//W3C//DTD SVG 1.1//EN" "http://www.w3.org/Graphics/SVG/1.1/DTD/svg11.dtd">
<svg version="1.1" xmlns="http://www.w3.org/2000/svg" xmlns:xlink="http://www.w3.org/1999/xlink" x="0px" y="0px" viewBox="0 0 256 256" enable-background="new 0 0 256 256" xml:space="preserve">
<metadata> Svg Vector Icons : http://www.onlinewebfonts.com/icon </metadata>
<g><g><path fill="#000000" d="M207.2,215.1c-4.6,0-8.4-3.8-8.4-8.4c0-4.5,3.9-8.2,8.4-8.2c4.6,0,8.3,3.7,8.3,8.2C215.5,211.3,211.8,215.1,207.2,215.1z M219.9,196l-47.4-46.9c3.1-6.4,4.7-13.6,4.7-21.1c0-27.2-21.9-49.2-49.2-49.2c-4.5,0-9,0.6-13.1,1.8l21.1,20.9c8.7,8.8,8,23.5-1.4,32.9c-9.4,9.4-24.2,10.1-32.9,1.4l-21-21.1c-1.2,4.2-1.8,8.6-1.8,13.2c0,27.3,22,49.3,49.2,49.3c7.5,0,14.7-1.7,21.1-4.8l47.2,47c6,5.9,16.1,5.6,22.6-1C225.3,212,225.7,201.9,219.9,196z"/><path fill="#000000" d="M231.2,106.1h-4.8l-11.2-0.1h-0.1c-2.3-0.2-4.4-1-6.3-2.2c-0.1,0-0.2-0.1-0.3-0.1c-3.9-2.6-6.6-7.2-6.5-12.3c0-1.6,0.3-3.1,0.8-4.6c0.4-1.6,1.3-3.2,2.3-4.5l2.5-2.5l5.6-5.5l3.3-3.3c4.8-6.2,4.8-15-0.2-21.2l-9.6-9.8c-6.4-4.9-15.2-5.1-21.5-0.3l-3.5,3.3l-7.8,8H174c-4.2,3.4-10.1,4.1-15,2c-1.7-0.8-3.2-1.7-4.6-3.1c-2.3-2.5-3.7-5.5-4.1-8.7v-3.5v-7.8v-4.8c-1-7.9-7.2-14-15.2-14.9h-13.7c-7.9,0.8-14.2,7-15.3,14.8v4.8v8v3.2v0c0,0.4-0.2,0.9-0.2,1.2c0,0,0,0.1,0,0.1c-0.1,0.4-0.2,0.8-0.2,1.2c-0.1,0-0.1,0.1-0.1,0.1c-0.1,0.4-0.2,0.9-0.4,1.2l0,0c-0.1,0.5-0.4,0.8-0.6,1.2c0,0.1,0,0.1,0,0.1c-0.8,1.7-2,3.2-3.6,4.5c-2.5,2.1-5.9,3.5-9.6,3.5c-3.4,0-6.6-1.2-9.1-3.2l-2.5-2.5l-5.6-5.5l-3.4-3.4c-6.2-4.7-15-4.7-21.2,0.2l-9.8,9.7c-5,6.2-5,15-0.3,21.3l3.4,3.3l7.9,7.9c0.1,0.3,0.3,0.5,0.4,0.7c0.1,0.1,0.2,0.3,0.4,0.5c0.1,0.1,0.2,0.5,0.4,0.7c0,0,0.2,0.3,0.2,0.5c0.1,0.2,0.3,0.6,0.5,0.8c0,0.1,0,0.3,0.1,0.5c0.2,0.2,0.2,0.6,0.4,0.9c0,0.1,0,0.2,0.1,0.4c0,0.5,0.3,0.8,0.3,1.3l0,0c0.1,0.5,0.2,0.9,0.2,1.3c0.6,4.4-0.8,8.9-4.2,12.2l0,0c-2.4,2.5-5.5,3.9-8.7,4.2h-3.5h-7.8H25c-7.9,1.1-14,7.4-14.9,15.2l0,13.8c0.8,7.9,7,14.2,14.8,15.2h4.8l11.2,0.1c0.4,0,1,0,1.3,0.2c0.1,0,0.3,0,0.4,0c0.4,0.1,0.6,0.3,1,0.3c6,1.9,10.4,7.5,10.4,14.2c0,3.4-1.2,6.7-3.2,9.2l-2.5,2.4l-5.6,5.5l-3.3,3.3c-4.7,6.3-4.7,15.1,0.2,21.3l9.8,9.9c6.2,5,15,5,21.3,0.2l3.3-3.3l8-7.8c0-0.1,0.1-0.1,0.2-0.1c0.3-0.3,0.6-0.5,0.8-0.7c0.3,0,0.3,0,0.5-0.2c0.1-0.1,0.4-0.3,0.6-0.5c0.3-0.1,0.6-0.2,0.9-0.4c0.2-0.1,0.3-0.1,0.4-0.2c0.4-0.1,0.7-0.2,1.3-0.4l0,0c0.5-0.1,0.8-0.4,1.1-0.4c0,0,0,0,0.1,0c0.4-0.1,0.8-0.1,1.2-0.2h0.1c0.4,0,0.7,0,1-0.1c4.1-0.1,8.3,1.3,11.3,4.4c2.5,2.5,3.8,5.6,4.3,8.7l0,3.5v7.8v4.7c1,7.9,7.2,14.2,15.1,15h13.8c7.9-0.8,14.1-7,15.2-14.7v-4.7l0.1-8.1v-3.2c0.3-2.9,1.3-5.3,2.9-7.4c0.1-0.2,0.3-0.4,0.5-0.5c0.1-0.1,0.2-0.4,0.4-0.5c0.9-1,1.9-1.8,2.9-2.6l0,0c0.3,0,0.7-0.3,0.9-0.5c0.2-0.1,0.2-0.1,0.3-0.1l0,0c0.1,0,0.3,0,0.3,0c0.3-0.2,0.5-0.2,0.8-0.4l-13.2-13.2c-5.8,1.7-11.8,2.5-18,2.5c-35.8-0.1-64.6-29.1-64.5-64.7c0-35.8,29.1-64.7,64.8-64.6c35.7,0.1,64.4,29.1,64.4,64.8c0,6.1-0.9,12.1-2.5,17.6l13.3,13.1c0.7-1.6,1.8-2.9,3-4.3c1.4-1.3,3.2-2.4,4.9-3c1.2-0.6,2.5-1,3.8-1.1h3.6h7.9h4.7c7.8-1.1,14-7.2,14.9-15.1v-13.9C245.2,113.5,239,107.2,231.2,106.1L231.2,106.1z"/></g></g>
</svg>